<svg xmlns="http://www.w3.org/2000/svg" width="460" height="460" viewBox="15 90 750 720"><defs><linearGradient id="fabric" x2="1" y2="1"><stop stop-color="#426bad"/><stop offset=".5" stop-color="#183b74"/><stop offset="1" stop-color="#0f2243"/></linearGradient><linearGradient id="tube"><stop stop-color="#9dbd58"/><stop offset=".35" stop-color="#d5f995"/><stop offset=".7" stop-color="#bee671"/><stop offset="1" stop-color="#86aa41"/></linearGradient><filter id="shadow" x="-40%" y="-30%" width="180%" height="180%"><feDropShadow dx="10" dy="26" stdDeviation="18" flood-color="#263a30" flood-opacity=".23"/></filter><pattern id="grain" width="5" height="5" patternUnits="userSpaceOnUse"><circle cx="1" cy="1" r=".65" fill="#fff" opacity=".09"/></pattern></defs><g filter="url(#shadow)" transform="translate(58 78) rotate(-9 320 330)"><path d="M218 78 124 113 42 258 153 312 191 245 175 620Q325 654 470 620L455 245 493 312 604 258 522 113 429 78 377 107 270 107Z" fill="url(#fabric)"/><path d="m218 78 52 29q56 61 107 0l52-29-29-19q-78 34-153 0z" fill="#18261f"/><path d="M248 70q78 38 152 0" fill="none" stroke="#6fceff" stroke-width="8"/><path d="m126 117-78 139 31 16 92-151zm394 0 77 139-31 16-92-151z" fill="#6fceff"/><path d="m186 432 277-184 2 58-281 184zm-3 81 284-188 2 14-287 189z" fill="#6fceff" opacity=".85"/><path d="M218 78 124 113 42 258 153 312 191 245 175 620Q325 654 470 620L455 245 493 312 604 258 522 113 429 78 377 107 270 107Z" fill="url(#grain)"/><text x="320" y="237" text-anchor="middle" fill="#eef4e8" font-family="Arial,sans-serif" font-weight="700" font-size="39" letter-spacing="4">ALEX</text><text x="320" y="275" text-anchor="middle" fill="#d9e7d0" font-family="Arial,sans-serif" font-size="13" letter-spacing="7">PLAY YOUR WAY</text><text x="396" y="158" fill="#6fceff" font-family="Arial,sans-serif" font-weight="900" font-size="31">B.</text></g></svg>